<mxfile host="65bd71144e" scale="3" border="0">
    <diagram id="GoRSr83DgN885mMEOp3Y" name="3.Scale drives deep learning progress">
        <mxGraphModel dx="536" dy="381" grid="1" gridSize="10" guides="1" tooltips="1" connect="1" arrows="1" fold="1" page="1" pageScale="1" pageWidth="700" pageHeight="1000" math="0" shadow="0">
            <root>
                <mxCell id="0"/>
                <mxCell id="1" parent="0"/>
                <mxCell id="_g5_nOP7CmMaXydkHljt-1" value="" style="endArrow=classic;startArrow=classic;html=1;sketch=1;fontFamily=Comic Sans MS;fontSize=10;" edge="1" parent="1">
                    <mxGeometry width="50" height="50" relative="1" as="geometry">
                        <mxPoint x="490" y="320" as="sourcePoint"/>
                        <mxPoint x="200" y="160" as="targetPoint"/>
                        <Array as="points">
                            <mxPoint x="200" y="320"/>
                        </Array>
                    </mxGeometry>
                </mxCell>
                <mxCell id="_g5_nOP7CmMaXydkHljt-2" value="" style="endArrow=none;html=1;dashed=1;sketch=1;fontFamily=Comic Sans MS;fontSize=10;" edge="1" parent="1">
                    <mxGeometry width="50" height="50" relative="1" as="geometry">
                        <mxPoint x="200" y="320" as="sourcePoint"/>
                        <mxPoint x="480" y="280" as="targetPoint"/>
                        <Array as="points">
                            <mxPoint x="230" y="290"/>
                            <mxPoint x="250" y="280"/>
                        </Array>
                    </mxGeometry>
                </mxCell>
                <mxCell id="_g5_nOP7CmMaXydkHljt-3" value="Amount of Data" style="text;html=1;align=center;verticalAlign=middle;resizable=0;points=[];autosize=1;strokeColor=none;fillColor=none;fontSize=10;fontFamily=Comic Sans MS;" vertex="1" parent="1">
                    <mxGeometry x="390" y="325" width="100" height="30" as="geometry"/>
                </mxCell>
                <mxCell id="_g5_nOP7CmMaXydkHljt-4" value="Performance" style="text;html=1;align=center;verticalAlign=middle;resizable=0;points=[];autosize=1;strokeColor=none;fillColor=none;fontSize=10;fontFamily=Comic Sans MS;" vertex="1" parent="1">
                    <mxGeometry x="210" y="150" width="80" height="30" as="geometry"/>
                </mxCell>
            </root>
        </mxGraphModel>
    </diagram>
    <diagram id="cM2-RDbuX4fXbJVQTADO" name="1.1_housing-price-prdiction">
        <mxGraphModel dx="884" dy="1628" grid="1" gridSize="10" guides="1" tooltips="1" connect="1" arrows="1" fold="1" page="1" pageScale="1" pageWidth="700" pageHeight="1000" math="0" shadow="0">
            <root>
                <mxCell id="0"/>
                <mxCell id="1" parent="0"/>
                <mxCell id="14" value="size ---&amp;gt; ⭕️ ---&amp;gt; price" style="text;html=1;align=center;verticalAlign=middle;resizable=0;points=[];autosize=1;strokeColor=#666666;fillColor=#f5f5f5;fontFamily=Comic Sans MS;fontColor=#333333;glass=0;rounded=1;shadow=1;" vertex="1" parent="1">
                    <mxGeometry x="235" y="150" width="140" height="30" as="geometry"/>
                </mxCell>
                <mxCell id="15" value="&quot;neuron&quot;" style="text;html=1;align=center;verticalAlign=middle;resizable=0;points=[];autosize=1;strokeColor=#b85450;fillColor=#f8cecc;fontFamily=Comic Sans MS;rounded=1;glass=0;shadow=1;" vertex="1" parent="1">
                    <mxGeometry x="270" y="100" width="70" height="30" as="geometry"/>
                </mxCell>
                <mxCell id="16" value="" style="endArrow=classic;html=1;sketch=1;fontFamily=Comic Sans MS;" edge="1" parent="1" source="15" target="14">
                    <mxGeometry width="50" height="50" relative="1" as="geometry">
                        <mxPoint x="215" y="230" as="sourcePoint"/>
                        <mxPoint x="265" y="180" as="targetPoint"/>
                    </mxGeometry>
                </mxCell>
                <mxCell id="24" value="✖️ N 🟰&amp;nbsp;" style="text;html=1;align=center;verticalAlign=middle;resizable=0;points=[];autosize=1;strokeColor=none;fillColor=none;fontFamily=Comic Sans MS;" vertex="1" parent="1">
                    <mxGeometry x="375" y="100" width="70" height="30" as="geometry"/>
                </mxCell>
                <mxCell id="26" value="&quot;neural Network&quot;" style="text;html=1;align=center;verticalAlign=middle;resizable=0;points=[];autosize=1;strokeColor=#b85450;fillColor=#f8cecc;fontFamily=Comic Sans MS;rounded=1;glass=0;shadow=1;" vertex="1" parent="1">
                    <mxGeometry x="445" y="100" width="120" height="30" as="geometry"/>
                </mxCell>
                <mxCell id="51" value="" style="group" vertex="1" connectable="0" parent="1">
                    <mxGeometry x="390" y="150" width="380" height="130" as="geometry"/>
                </mxCell>
                <mxCell id="27" value="" style="rounded=1;whiteSpace=wrap;html=1;shadow=1;glass=0;sketch=0;fontFamily=Comic Sans MS;fillColor=#f5f5f5;fontColor=#333333;strokeColor=#666666;" vertex="1" parent="51">
                    <mxGeometry width="379.99999999999994" height="130" as="geometry"/>
                </mxCell>
                <mxCell id="50" value="" style="group" vertex="1" connectable="0" parent="51">
                    <mxGeometry y="10" width="362.72727272727275" height="110" as="geometry"/>
                </mxCell>
                <mxCell id="28" value="&lt;font style=&quot;font-size: 10px;&quot;&gt;size&lt;br&gt;&lt;br&gt;#bedrooms&lt;br&gt;&lt;br&gt;zip code&lt;br&gt;&lt;br&gt;wealth&lt;/font&gt;" style="text;html=1;align=center;verticalAlign=middle;resizable=0;points=[];autosize=1;strokeColor=#b46504;fillColor=#fad7ac;fontFamily=Comic Sans MS;shadow=1;rounded=1;" vertex="1" parent="50">
                    <mxGeometry x="29.524312896405917" width="80" height="110" as="geometry"/>
                </mxCell>
                <mxCell id="29" value="" style="ellipse;whiteSpace=wrap;html=1;aspect=fixed;rounded=1;shadow=1;glass=0;sketch=0;fontFamily=Comic Sans MS;fillColor=#fad9d5;strokeColor=#ae4132;" vertex="1" parent="50">
                    <mxGeometry x="143.40380549682874" y="45" width="13.31923890063425" height="13.31923890063425" as="geometry"/>
                </mxCell>
                <mxCell id="30" value="" style="ellipse;whiteSpace=wrap;html=1;aspect=fixed;rounded=1;shadow=1;glass=0;sketch=0;fontFamily=Comic Sans MS;fillColor=#fad9d5;strokeColor=#ae4132;" vertex="1" parent="50">
                    <mxGeometry x="143.40380549682874" y="20" width="13.31923890063425" height="13.31923890063425" as="geometry"/>
                </mxCell>
                <mxCell id="32" value="" style="ellipse;whiteSpace=wrap;html=1;aspect=fixed;rounded=1;shadow=1;glass=0;sketch=0;fontFamily=Comic Sans MS;fillColor=#fad9d5;strokeColor=#ae4132;" vertex="1" parent="50">
                    <mxGeometry x="143.40380549682874" y="70" width="13.31923890063425" height="13.31923890063425" as="geometry"/>
                </mxCell>
                <mxCell id="33" value="" style="endArrow=classic;html=1;sketch=1;fontFamily=Comic Sans MS;exitX=0.99;exitY=0.08;exitDx=0;exitDy=0;exitPerimeter=0;entryX=0;entryY=0.5;entryDx=0;entryDy=0;" edge="1" parent="50" source="28" target="30">
                    <mxGeometry width="50" height="50" relative="1" as="geometry">
                        <mxPoint x="126.53276955602534" y="-10" as="sourcePoint"/>
                        <mxPoint x="143.40380549682874" y="-30" as="targetPoint"/>
                    </mxGeometry>
                </mxCell>
                <mxCell id="34" value="" style="endArrow=classic;html=1;sketch=1;fontFamily=Comic Sans MS;exitX=0.998;exitY=0.382;exitDx=0;exitDy=0;exitPerimeter=0;" edge="1" parent="50" source="28">
                    <mxGeometry width="50" height="50" relative="1" as="geometry">
                        <mxPoint x="108.90253699788575" y="18.799999999999955" as="sourcePoint"/>
                        <mxPoint x="143.40380549682874" y="30" as="targetPoint"/>
                    </mxGeometry>
                </mxCell>
                <mxCell id="35" value="" style="endArrow=classic;html=1;sketch=1;fontFamily=Comic Sans MS;exitX=1.002;exitY=0.636;exitDx=0;exitDy=0;exitPerimeter=0;entryX=0;entryY=0.5;entryDx=0;entryDy=0;" edge="1" parent="50" source="28" target="29">
                    <mxGeometry width="50" height="50" relative="1" as="geometry">
                        <mxPoint x="109.50989429175479" y="52.01999999999998" as="sourcePoint"/>
                        <mxPoint x="151.83932346723046" y="40" as="targetPoint"/>
                    </mxGeometry>
                </mxCell>
                <mxCell id="36" value="" style="endArrow=classic;html=1;sketch=1;fontFamily=Comic Sans MS;exitX=0.99;exitY=0.636;exitDx=0;exitDy=0;exitPerimeter=0;entryX=0;entryY=0.5;entryDx=0;entryDy=0;" edge="1" parent="50" source="28" target="32">
                    <mxGeometry width="50" height="50" relative="1" as="geometry">
                        <mxPoint x="109.81357293868919" y="79.96000000000004" as="sourcePoint"/>
                        <mxPoint x="151.83932346722352" y="65" as="targetPoint"/>
                    </mxGeometry>
                </mxCell>
                <mxCell id="37" value="" style="endArrow=classic;html=1;sketch=1;fontFamily=Comic Sans MS;exitX=0.994;exitY=0.915;exitDx=0;exitDy=0;exitPerimeter=0;" edge="1" parent="50" source="28">
                    <mxGeometry width="50" height="50" relative="1" as="geometry">
                        <mxPoint x="108.90253699788575" y="79.96000000000004" as="sourcePoint"/>
                        <mxPoint x="143.40380549682874" y="80" as="targetPoint"/>
                    </mxGeometry>
                </mxCell>
                <mxCell id="38" value="" style="ellipse;whiteSpace=wrap;html=1;aspect=fixed;rounded=1;shadow=1;glass=0;sketch=0;fontFamily=Comic Sans MS;fillColor=#fad9d5;strokeColor=#ae4132;" vertex="1" parent="50">
                    <mxGeometry x="236.19450317124733" y="45" width="13.31923890063425" height="13.31923890063425" as="geometry"/>
                </mxCell>
                <mxCell id="39" value="" style="endArrow=classic;html=1;sketch=1;fontFamily=Comic Sans MS;exitX=1;exitY=0.5;exitDx=0;exitDy=0;entryX=0;entryY=0.5;entryDx=0;entryDy=0;" edge="1" parent="50" source="30" target="38">
                    <mxGeometry width="50" height="50" relative="1" as="geometry">
                        <mxPoint x="108.90253699788595" y="18.799999999999955" as="sourcePoint"/>
                        <mxPoint x="151.8393234672373" y="40" as="targetPoint"/>
                    </mxGeometry>
                </mxCell>
                <mxCell id="40" value="&lt;font style=&quot;font-size: 10px;&quot;&gt;family size&lt;/font&gt;" style="text;html=1;align=center;verticalAlign=middle;resizable=0;points=[];autosize=1;strokeColor=none;fillColor=none;fontFamily=Comic Sans MS;" vertex="1" parent="50">
                    <mxGeometry x="172.92811839323466" y="10" width="70" height="30" as="geometry"/>
                </mxCell>
                <mxCell id="41" value="" style="endArrow=classic;html=1;sketch=1;fontFamily=Comic Sans MS;exitX=1;exitY=0.5;exitDx=0;exitDy=0;" edge="1" parent="50" source="29">
                    <mxGeometry width="50" height="50" relative="1" as="geometry">
                        <mxPoint x="168.7103594080269" y="40" as="sourcePoint"/>
                        <mxPoint x="236.19450317124733" y="55" as="targetPoint"/>
                    </mxGeometry>
                </mxCell>
                <mxCell id="42" value="walkability" style="text;html=1;align=center;verticalAlign=middle;resizable=0;points=[];autosize=1;strokeColor=none;fillColor=none;fontSize=10;fontFamily=Comic Sans MS;" vertex="1" parent="50">
                    <mxGeometry x="151.83932346723046" y="30" width="70" height="30" as="geometry"/>
                </mxCell>
                <mxCell id="43" value="" style="endArrow=classic;html=1;sketch=1;fontFamily=Comic Sans MS;exitX=1;exitY=0.5;exitDx=0;exitDy=0;entryX=0;entryY=0.5;entryDx=0;entryDy=0;" edge="1" parent="50" source="32" target="38">
                    <mxGeometry width="50" height="50" relative="1" as="geometry">
                        <mxPoint x="104.76913319238903" y="18.799999999999955" as="sourcePoint"/>
                        <mxPoint x="151.8393234672373" y="40" as="targetPoint"/>
                    </mxGeometry>
                </mxCell>
                <mxCell id="44" value="school quality" style="text;html=1;align=center;verticalAlign=middle;resizable=0;points=[];autosize=1;strokeColor=none;fillColor=none;fontSize=10;fontFamily=Comic Sans MS;rounded=1;shadow=1;glass=0;sketch=0;" vertex="1" parent="50">
                    <mxGeometry x="164.49260042283296" y="65" width="90" height="30" as="geometry"/>
                </mxCell>
                <mxCell id="46" value="" style="endArrow=classic;html=1;sketch=1;fontFamily=Comic Sans MS;exitX=1;exitY=0.5;exitDx=0;exitDy=0;" edge="1" parent="50" source="38">
                    <mxGeometry width="50" height="50" relative="1" as="geometry">
                        <mxPoint x="104.76913319238903" y="18.800000000000068" as="sourcePoint"/>
                        <mxPoint x="286.8076109936575" y="55" as="targetPoint"/>
                    </mxGeometry>
                </mxCell>
                <mxCell id="47" value="price" style="text;html=1;align=center;verticalAlign=middle;resizable=0;points=[];autosize=1;strokeColor=#b46504;fillColor=#fad7ac;fontSize=10;fontFamily=Comic Sans MS;rounded=1;shadow=1;" vertex="1" parent="50">
                    <mxGeometry x="286.8076109936575" y="40" width="50" height="30" as="geometry"/>
                </mxCell>
                <mxCell id="48" value="x" style="text;html=1;align=center;verticalAlign=middle;resizable=0;points=[];autosize=1;strokeColor=none;fillColor=none;fontSize=10;fontFamily=Comic Sans MS;rounded=1;shadow=1;glass=0;sketch=0;" vertex="1" parent="50">
                    <mxGeometry y="35" width="30" height="30" as="geometry"/>
                </mxCell>
                <mxCell id="49" value="y" style="text;html=1;align=center;verticalAlign=middle;resizable=0;points=[];autosize=1;strokeColor=none;fillColor=none;fontSize=10;fontFamily=Comic Sans MS;rounded=1;shadow=1;glass=0;sketch=0;" vertex="1" parent="50">
                    <mxGeometry x="337.4207188160676" y="40" width="30" height="30" as="geometry"/>
                </mxCell>
                <mxCell id="59" value="" style="ellipse;whiteSpace=wrap;html=1;rounded=1;shadow=1;glass=0;sketch=1;fontFamily=Comic Sans MS;fontSize=10;fillColor=#b0e3e6;strokeColor=#0e8088;curveFitting=1;jiggle=2;opacity=50;" vertex="1" parent="50">
                    <mxGeometry x="132.55813953488374" y="10" width="35.34883720930233" height="90" as="geometry"/>
                </mxCell>
                <mxCell id="62" value="" style="endArrow=classic;html=1;sketch=1;fontFamily=Comic Sans MS;fontSize=10;fillColor=#b0e3e6;strokeColor=#0e8088;dashed=1;entryX=-0.016;entryY=0.422;entryDx=0;entryDy=0;entryPerimeter=0;" edge="1" parent="51" target="60">
                    <mxGeometry width="50" height="50" relative="1" as="geometry">
                        <mxPoint x="150.23255813953486" y="110" as="sourcePoint"/>
                        <mxPoint x="141.3953488372093" y="170" as="targetPoint"/>
                        <Array as="points">
                            <mxPoint x="79.53488372093022" y="160"/>
                        </Array>
                    </mxGeometry>
                </mxCell>
                <mxCell id="63" value="" style="endArrow=classic;html=1;sketch=1;fontFamily=Comic Sans MS;fontSize=10;exitX=0.5;exitY=1;exitDx=0;exitDy=0;fillColor=#fad9d5;strokeColor=#ae4132;dashed=1;" edge="1" parent="51">
                    <mxGeometry width="50" height="50" relative="1" as="geometry">
                        <mxPoint x="62.262156448202994" y="120.00363636363647" as="sourcePoint"/>
                        <mxPoint x="61.860465116279066" y="210" as="targetPoint"/>
                    </mxGeometry>
                </mxCell>
                <mxCell id="56" value="" style="endArrow=classic;html=1;sketch=1;fontFamily=Comic Sans MS;fontSize=10;exitX=0.5;exitY=1;exitDx=0;exitDy=0;fillColor=#fad9d5;strokeColor=#ae4132;dashed=1;" edge="1" parent="1" source="32">
                    <mxGeometry width="50" height="50" relative="1" as="geometry">
                        <mxPoint x="550" y="330" as="sourcePoint"/>
                        <mxPoint x="560" y="310" as="targetPoint"/>
                    </mxGeometry>
                </mxCell>
                <mxCell id="57" value="hidden units 隐藏神经元" style="text;html=1;align=center;verticalAlign=middle;resizable=0;points=[];autosize=1;strokeColor=#ae4132;fillColor=#fad9d5;fontSize=10;fontFamily=Comic Sans MS;rounded=1;shadow=1;" vertex="1" parent="1">
                    <mxGeometry x="500" y="310" width="130" height="30" as="geometry"/>
                </mxCell>
                <mxCell id="60" value="全连接层&lt;br&gt;&lt;div style=&quot;text-align: left;&quot;&gt;&lt;span style=&quot;background-color: initial;&quot;&gt;(每个神经元都将所有的特征作为输入，图中没有画全）&lt;/span&gt;&lt;/div&gt;" style="rounded=1;whiteSpace=wrap;html=1;shadow=1;glass=0;sketch=1;fontFamily=Comic Sans MS;fontSize=10;opacity=50;fillColor=#b0e3e6;strokeColor=#0e8088;" vertex="1" parent="1">
                    <mxGeometry x="500" y="350" width="130" height="50" as="geometry"/>
                </mxCell>
                <mxCell id="65" value="输入层" style="text;html=1;align=center;verticalAlign=middle;resizable=0;points=[];autosize=1;strokeColor=#b85450;fillColor=#f8cecc;fontFamily=Comic Sans MS;rounded=1;glass=0;shadow=1;" vertex="1" parent="1">
                    <mxGeometry x="430" y="360" width="60" height="30" as="geometry"/>
                </mxCell>
                <mxCell id="67" value="" style="group" vertex="1" connectable="0" parent="1">
                    <mxGeometry x="420" y="-90" width="175" height="170" as="geometry"/>
                </mxCell>
                <mxCell id="19" value="" style="group" vertex="1" connectable="0" parent="67">
                    <mxGeometry x="25" width="150" height="170" as="geometry"/>
                </mxCell>
                <mxCell id="66" value="" style="rounded=1;whiteSpace=wrap;html=1;shadow=1;glass=0;sketch=1;fontFamily=Comic Sans MS;fontSize=10;opacity=50;" vertex="1" parent="19">
                    <mxGeometry x="-45" y="-15" width="195" height="185" as="geometry"/>
                </mxCell>
                <mxCell id="20" value="" style="endArrow=none;html=1;sketch=1;fontFamily=Comic Sans MS;fillColor=#dae8fc;strokeColor=#6c8ebf;" edge="1" parent="19">
                    <mxGeometry width="50" height="50" relative="1" as="geometry">
                        <mxPoint x="41.66666666666667" y="70" as="sourcePoint"/>
                        <mxPoint x="100" as="targetPoint"/>
                    </mxGeometry>
                </mxCell>
                <mxCell id="21" value="" style="endArrow=none;html=1;sketch=1;fontFamily=Comic Sans MS;fillColor=#dae8fc;strokeColor=#6c8ebf;" edge="1" parent="19">
                    <mxGeometry width="50" height="50" relative="1" as="geometry">
                        <mxPoint y="70" as="sourcePoint"/>
                        <mxPoint x="41.66666666666667" y="70" as="targetPoint"/>
                    </mxGeometry>
                </mxCell>
                <mxCell id="23" value="max(0,y)" style="text;html=1;align=center;verticalAlign=middle;resizable=0;points=[];autosize=1;strokeColor=#b85450;fillColor=#f8cecc;fontFamily=Comic Sans MS;rounded=1;shadow=1;" vertex="1" parent="19">
                    <mxGeometry x="-28.571428571428573" width="70" height="30" as="geometry"/>
                </mxCell>
                <mxCell id="22" value="Relu function&lt;br&gt;( Rectified Linear Unit)&lt;br&gt;线性整流函数" style="text;html=1;align=center;verticalAlign=middle;resizable=0;points=[];autosize=1;strokeColor=#666666;fillColor=#f5f5f5;fontFamily=Comic Sans MS;rounded=1;shadow=1;glass=0;sketch=0;fontColor=#333333;" vertex="1" parent="67">
                    <mxGeometry y="85" width="150" height="60" as="geometry"/>
                </mxCell>
                <mxCell id="68" value="" style="group" vertex="1" connectable="0" parent="1">
                    <mxGeometry x="200" y="-40" width="170" height="140" as="geometry"/>
                </mxCell>
                <mxCell id="3" value="" style="endArrow=classic;startArrow=classic;html=1;sketch=1;curveFitting=1;jiggle=2;" edge="1" parent="68">
                    <mxGeometry width="50" height="50" relative="1" as="geometry">
                        <mxPoint x="136.8292682926829" y="110.30303030303031" as="sourcePoint"/>
                        <mxPoint x="37.3170731707317" y="8.484848484848484" as="targetPoint"/>
                        <Array as="points">
                            <mxPoint x="37.3170731707317" y="110.30303030303031"/>
                        </Array>
                    </mxGeometry>
                </mxCell>
                <mxCell id="4" value="&lt;font face=&quot;Comic Sans MS&quot;&gt;price&lt;/font&gt;" style="text;html=1;align=center;verticalAlign=middle;resizable=0;points=[];autosize=1;strokeColor=none;fillColor=none;" vertex="1" parent="68">
                    <mxGeometry width="50" height="30" as="geometry"/>
                </mxCell>
                <mxCell id="5" value="size of house&lt;br&gt;" style="text;html=1;align=center;verticalAlign=middle;resizable=0;points=[];autosize=1;strokeColor=none;fillColor=none;fontFamily=Comic Sans MS;" vertex="1" parent="68">
                    <mxGeometry x="87.07317073170731" y="114.54545454545455" width="100" height="30" as="geometry"/>
                </mxCell>
                <mxCell id="6" value="❌" style="text;html=1;align=center;verticalAlign=middle;resizable=0;points=[];autosize=1;strokeColor=none;fillColor=none;fontFamily=Comic Sans MS;" vertex="1" parent="68">
                    <mxGeometry x="70.48780487804878" y="59.3939393939394" width="40" height="30" as="geometry"/>
                </mxCell>
                <mxCell id="7" value="❌" style="text;html=1;align=center;verticalAlign=middle;resizable=0;points=[];autosize=1;strokeColor=none;fillColor=none;fontFamily=Comic Sans MS;" vertex="1" parent="68">
                    <mxGeometry x="103.65853658536585" y="42.42424242424242" width="40" height="30" as="geometry"/>
                </mxCell>
                <mxCell id="8" value="❌" style="text;html=1;align=center;verticalAlign=middle;resizable=0;points=[];autosize=1;strokeColor=none;fillColor=none;fontFamily=Comic Sans MS;" vertex="1" parent="68">
                    <mxGeometry x="87.07317073170731" y="76.36363636363636" width="40" height="30" as="geometry"/>
                </mxCell>
                <mxCell id="9" value="❌" style="text;html=1;align=center;verticalAlign=middle;resizable=0;points=[];autosize=1;strokeColor=none;fillColor=none;fontFamily=Comic Sans MS;" vertex="1" parent="68">
                    <mxGeometry x="87.07317073170731" y="42.42424242424242" width="40" height="30" as="geometry"/>
                </mxCell>
                <mxCell id="10" value="❌" style="text;html=1;align=center;verticalAlign=middle;resizable=0;points=[];autosize=1;strokeColor=none;fillColor=none;fontFamily=Comic Sans MS;" vertex="1" parent="68">
                    <mxGeometry x="111.95121951219511" y="16.96969696969697" width="40" height="30" as="geometry"/>
                </mxCell>
                <mxCell id="11" value="❌" style="text;html=1;align=center;verticalAlign=middle;resizable=0;points=[];autosize=1;strokeColor=none;fillColor=none;fontFamily=Comic Sans MS;" vertex="1" parent="68">
                    <mxGeometry x="70.48780487804878" y="76.36363636363636" width="40" height="30" as="geometry"/>
                </mxCell>
                <mxCell id="18" value="" style="group" vertex="1" connectable="0" parent="68">
                    <mxGeometry x="37.3170731707317" y="12.727272727272728" width="99.51219512195121" height="97.57575757575758" as="geometry"/>
                </mxCell>
                <mxCell id="12" value="" style="endArrow=none;html=1;sketch=1;fontFamily=Comic Sans MS;fillColor=#dae8fc;strokeColor=#6c8ebf;" edge="1" parent="18">
                    <mxGeometry width="50" height="50" relative="1" as="geometry">
                        <mxPoint x="41.46341463414634" y="97.57575757575758" as="sourcePoint"/>
                        <mxPoint x="99.51219512195121" as="targetPoint"/>
                    </mxGeometry>
                </mxCell>
                <mxCell id="13" value="" style="endArrow=none;html=1;sketch=1;fontFamily=Comic Sans MS;fillColor=#dae8fc;strokeColor=#6c8ebf;" edge="1" parent="18">
                    <mxGeometry width="50" height="50" relative="1" as="geometry">
                        <mxPoint y="97.57575757575758" as="sourcePoint"/>
                        <mxPoint x="41.46341463414634" y="97.57575757575758" as="targetPoint"/>
                    </mxGeometry>
                </mxCell>
                <mxCell id="69" value="神经网络：拟合出一个函数&lt;br&gt;来建立x和y之间的映射关系" style="text;html=1;align=center;verticalAlign=middle;resizable=0;points=[];autosize=1;strokeColor=#ae4132;fillColor=#fad9d5;fontSize=10;fontFamily=Comic Sans MS;rounded=0;glass=0;shadow=1;" vertex="1" parent="1">
                    <mxGeometry x="595" y="95" width="140" height="40" as="geometry"/>
                </mxCell>
            </root>
        </mxGraphModel>
    </diagram>
</mxfile>